<?xml version="1.0" encoding="utf-8"?>
<!-- Generator: Adobe Illustrator 25.2.3, SVG Export Plug-In . SVG Version: 6.00 Build 0)  -->
<svg version="1.1" id="Layer_1" xmlns="http://www.w3.org/2000/svg" xmlns:xlink="http://www.w3.org/1999/xlink" x="0px" y="0px"
	 width="50px" height="50px" viewBox="0 0 50 50" style="enable-background:new 0 0 50 50;" xml:space="preserve">
<style type="text/css">
	.st0{fill:#E6E7E8;}
	.st1{fill:#C7C8CA;}
</style>
<circle class="st0" cx="25" cy="25" r="25"/>
<path class="st1" d="M17.8,29.7c0.5,0.3,1.2,0.3,1.8,0l4.1-2.3l2.8-1.5l4.1-2.3c0.5-0.3,1.2-0.3,1.8,0l3.3,1.8
	c0.5,0.3,0.9,0.9,0.9,1.5v3.6c0,0.6-0.3,1.2-0.9,1.5l-3.2,1.8c-0.5,0.3-1.2,0.3-1.8,0l-3.2-1.8c-0.5-0.3-0.9-0.9-0.9-1.5v-2.3
	l-2.8,1.6V32c0,0.6,0.3,1.2,0.9,1.5l5.9,3.4c0.5,0.3,1.2,0.3,1.8,0l6-3.4c0.6-0.3,0.9-0.9,0.9-1.5v-6.8c0-0.6-0.3-1.2-0.9-1.5
	l-6-3.4c-0.5-0.3-1.2-0.3-1.8,0l-4.1,2.3l-2.8,1.6l-4.1,2.3c-0.5,0.3-1.2,0.3-1.8,0l-3.2-1.8c-0.5-0.3-0.9-0.9-0.9-1.5v-3.6
	c0-0.6,0.3-1.2,0.9-1.5l3.2-1.8c0.5-0.3,1.2-0.3,1.8,0l3.2,1.8c0.5,0.3,0.9,0.9,0.9,1.5v2.3l2.8-1.6V18c0-0.6-0.3-1.2-0.9-1.5
	l-6-3.4c-0.5-0.3-1.2-0.3-1.8,0l-6,3.4c-0.5,0.3-0.9,0.9-0.9,1.5v6.8c0,0.6,0.3,1.2,0.9,1.5L17.8,29.7z"/>
</svg>
